<svg xmlns="http://www.w3.org/2000/svg" viewBox="0 0 24 24" width="24" height="24">
  <defs>
    <style>
      .stroke-main { fill: none; stroke: currentColor; stroke-width: 2; stroke-linecap: round; stroke-linejoin: round; }
      .fill-main { fill: currentColor; }
      
      /* HTTPS 的闭合安全锁的坚定跳动缩放，暗示强制锁定加密 */
      @keyframes lockSecure {
        0%, 100% { transform: scale(1); }
        50% { transform: scale(1.05); }
      }

      /* 盾牌统一扫描闪光 */
      @keyframes shieldGlint {
        0%, 80% { transform: translateX(-15px) rotate(45deg); opacity: 0; }
        90% { transform: translateX(5px) rotate(45deg); opacity: 0.5; }
        100% { transform: translateX(25px) rotate(45deg); opacity: 0; }
      }

      .glint { animation: shieldGlint 3s ease-in-out infinite; }
      .anim-lock { transform-origin: 12px 12px; animation: lockSecure 1.5s ease-in-out infinite; }
    </style>
  </defs>

  <!-- 家族底板：猫耳防爆盾 -->
  <path class="stroke-main" d="M 12 2 L 4 5 L 4 10 C 4 15.5 7.5 20.5 12 22 C 16.5 20.5 20 15.5 20 10 L 20 5 Z" />
  <path class="stroke-main" d="M 7 5 L 7 2 L 10 3.5" />
  <path class="stroke-main" d="M 17 5 L 17 2 L 14 3.5" />

  <!-- 内部协议标志：HTTP/HTTPS (安全挂锁) -->
  <g class="anim-lock">
    <!-- 锁孔/锁芯与下方主体 -->
    <rect x="9" y="11" width="6" height="5" rx="1" class="stroke-main" />
    <!-- 锁梁（已上锁状态） -->
    <path class="stroke-main" d="M 10 11 L 10 9 C 10 7.5, 14 7.5, 14 9 L 14 11" />
    <!-- 锁内的钥匙孔简写 -->
    <circle cx="12" cy="13.5" r="0.5" class="fill-main" />
  </g>

  <!-- 光棱扫描遮罩层 -->
  <clipPath id="shield-clip">
    <path d="M 12 2 L 4 5 L 4 10 C 4 15.5 7.5 20.5 12 22 C 16.5 20.5 20 15.5 20 10 L 20 5 Z" />
  </clipPath>
  <g clip-path="url(#shield-clip)">
    <rect class="fill-main glint" width="4" height="30" x="10" y="-5" opacity="0.5" />
  </g>

</svg>
